#N canvas -8 -8 1366 685 12;
#X obj 304 254 mtof;
#X obj 377 500 *~;
#X obj 411 428 *~;
#N canvas 817 133 450 432 env 0;
#X obj 156 160 line~;
#X obj 147 75 bng 15 250 50 0 empty empty empty 17 7 0 10 -262144 -1
-1;
#X obj 195 128 pack 0 500;
#X floatatom 296 92 5 0 0 0 - - -;
#X obj 155 201 *~;
#X obj 153 229 *~;
#X obj 183 88 del 10;
#X msg 132 125 1 5;
#X obj 131 24 inlet;
#X obj 152 275 outlet~;
#X obj 338 17 inlet;
#X connect 0 0 4 0;
#X connect 0 0 4 1;
#X connect 1 0 7 0;
#X connect 1 0 6 0;
#X connect 2 0 0 0;
#X connect 3 0 2 1;
#X connect 4 0 5 0;
#X connect 4 0 5 1;
#X connect 5 0 9 0;
#X connect 6 0 2 0;
#X connect 7 0 0 0;
#X connect 8 0 1 0;
#X connect 10 0 3 0;
#X restore 593 278 pd env;
#X obj 302 308 phasor~;
#X obj 303 362 vcf~ 1, f 15;
#N canvas 817 133 450 432 env 0;
#X obj 156 160 line~;
#X obj 147 75 bng 15 250 50 0 empty empty empty 17 7 0 10 -262144 -1
-1;
#X obj 195 128 pack 0 500;
#X floatatom 296 92 5 0 0 0 - - -;
#X obj 155 201 *~;
#X obj 153 229 *~;
#X obj 185 97 del 10;
#X msg 108 109 1 5;
#X obj 131 24 inlet;
#X obj 152 275 outlet~;
#X obj 338 17 inlet;
#X obj 93 77 t b b;
#X connect 0 0 4 0;
#X connect 0 0 4 1;
#X connect 1 0 11 0;
#X connect 2 0 0 0;
#X connect 3 0 2 1;
#X connect 4 0 5 0;
#X connect 4 0 5 1;
#X connect 5 0 9 0;
#X connect 6 0 2 0;
#X connect 7 0 0 0;
#X connect 8 0 1 0;
#X connect 10 0 3 0;
#X connect 11 0 6 0;
#X connect 11 1 7 0;
#X restore 452 254 pd env;
#X obj 298 174 t f b b, f 45;
#X obj 453 308 *~ 5000;
#X msg 704 574 1000;
#X msg 651 574 8000;
#X obj 298 111 notein;
#X obj 627 404 / 127;
#X floatatom 628 488 5 0 0 0 - - -;
#X obj 510 48 r enc1;
#X obj 949 68 r enc2;
#X obj 772 227 r enc3;
#X obj 1017 308 r enc4;
#X obj 1134 342 r enc5;
#X obj 1242 362 r enc6;
#X obj 386 92 unpack f f;
#X obj 377 524 dac~;
#X obj 644 39 hsl 128 15 0 1 0 0 empty empty empty -2 -8 0 10 -262144
-1 -1 1200 1;
#X obj 537 130 * 5000;
#X obj 1066 68 hsl 128 15 0 1 0 0 empty empty empty -2 -8 0 10 -262144
-1 -1 0 1;
#X obj 959 150 * 5000;
#X obj 770 308 * 20000;
#X obj 823 254 hsl 128 15 0 1 0 0 empty empty empty -2 -8 0 10 -262144
-1 -1 0 1;
#X msg 608 574 500;
#X obj 678 342 * 40;
#X obj 807 362 hsl 128 15 0 1 0 0 empty empty empty -2 -8 0 10 -262144
-1 -1 0 1;
#X msg 751 574 5;
#X obj 791 512 loadbang;
#X obj 377 476 clip~ 0 0.01;
#X obj 1096 362 t b f;
#X obj 1099 254 hsl 128 15 0 1 0 0 empty empty empty -2 -8 0 10 -262144
-1 -1 0 1;
#X obj 1096 386 -;
#X msg 1084 380 1;
#X floatatom 1096 410 5 0 0 0 - - -;
#X msg 386 68 55 127;
#X obj 1179 380 bng 15 250 50 0 empty empty empty 17 7 0 10 -262144
-1 -1;
#X obj 1047 476 random 100;
#X obj 950 512 random 100;
#X obj 1047 500 random 100;
#X obj 952 574 random 100;
#X obj 1043 574 random 100;
#X obj 1147 476 / 100;
#X obj 1147 500 / 100;
#X obj 1202 512 / 100;
#X obj 1139 574 / 100;
#X obj 1196 574 / 100;
#X obj 791 536 t b b b b b;
#X msg 856 574 1;
#X msg 38 404 bang;
#X obj 38 428 random 5;
#X msg 29 482 55 127;
#X msg 261 476 51 126;
#X msg 317 476 52 126;
#X obj 38 452 sel 0 1 2 3 4 5, f 40;
#X obj 58 327 tgl 15 0 empty empty empty 17 7 0 10 -262144 -1 -1 0
1;
#X msg 93 476 54 127;
#X msg 148 476 57 127;
#X obj 372 616 writesf~ 2;
#X msg 267 559 start;
#X msg 241 601 stop;
#X msg 451 581 open testforI.wav;
#X msg 208 476 0 0;
#X obj 38 380 metro 125;
#X obj 85 557 delread~;
#X obj 311 654 delwrite~ del_example 1000;
#X obj 19 229 delread~ del_example 1000;
#X text 96 605 input to delay line;
#X obj 19 253 *~ 0.8;
#X obj 27 175 line \$1 5;
#X obj 138 267 clip 0 0.9;
#X obj 138 291 line \$1 5;
#X obj 93 116 random;
#X obj 111 91 t b f;
#X obj 627 428 t f f f;
#X obj 111 67 * 500;
#X msg 403 34 55 127;
#X obj 697 140 random 100;
#X obj 697 164 / 100;
#X obj 697 188 * 5000;
#X obj 683 111 bng 15 250 50 0 empty empty empty 17 7 0 10 -262144
-1 -1;
#X obj 1179 400 t b b b b b b;
#X obj 117 355 *~ 0.9;
#X msg 121 324 50;
#X floatatom 697 212 5 0 0 0 - - -;
#X obj 20 299 lop~;
#X obj 807 88 env~;
#X obj 510 72 * 1;
#X obj 510 96 line~ \$1 1;
#X obj 302 332 *~;
#X connect 0 0 4 0;
#X connect 1 0 21 0;
#X connect 1 0 21 1;
#X connect 1 0 62 0;
#X connect 1 0 62 1;
#X connect 1 0 69 0;
#X connect 2 0 33 0;
#X connect 3 0 2 1;
#X connect 4 0 93 0;
#X connect 5 1 2 0;
#X connect 6 0 8 0;
#X connect 7 0 0 0;
#X connect 7 1 6 0;
#X connect 7 2 3 0;
#X connect 8 0 5 1;
#X connect 9 0 3 1;
#X connect 10 0 8 1;
#X connect 11 0 7 0;
#X connect 11 1 12 0;
#X connect 12 0 78 0;
#X connect 13 0 1 1;
#X connect 14 0 91 0;
#X connect 15 0 25 0;
#X connect 16 0 26 0;
#X connect 17 0 29 0;
#X connect 18 0 34 0;
#X connect 19 0 40 0;
#X connect 20 0 7 0;
#X connect 20 1 12 0;
#X connect 22 0 91 0;
#X connect 23 0 6 1;
#X connect 24 0 25 0;
#X connect 25 0 3 1;
#X connect 26 0 8 1;
#X connect 27 0 26 0;
#X connect 28 0 6 1;
#X connect 29 0 5 2;
#X connect 30 0 29 0;
#X connect 31 0 5 2;
#X connect 32 0 51 0;
#X connect 33 0 1 0;
#X connect 34 0 37 0;
#X connect 34 1 36 1;
#X connect 35 0 34 0;
#X connect 36 0 33 2;
#X connect 36 0 38 0;
#X connect 37 0 36 0;
#X connect 39 0 20 0;
#X connect 40 0 85 0;
#X connect 41 0 46 0;
#X connect 42 0 47 0;
#X connect 43 0 48 0;
#X connect 44 0 49 0;
#X connect 45 0 50 0;
#X connect 46 0 23 0;
#X connect 47 0 25 0;
#X connect 48 0 26 0;
#X connect 49 0 29 0;
#X connect 50 0 34 0;
#X connect 51 0 28 0;
#X connect 51 1 10 0;
#X connect 51 2 9 0;
#X connect 51 3 31 0;
#X connect 51 4 52 0;
#X connect 52 0 33 2;
#X connect 53 0 54 0;
#X connect 53 0 40 0;
#X connect 54 0 58 0;
#X connect 55 0 20 0;
#X connect 56 0 20 0;
#X connect 57 0 20 0;
#X connect 58 0 55 0;
#X connect 58 1 60 0;
#X connect 58 2 61 0;
#X connect 58 3 66 0;
#X connect 58 4 56 0;
#X connect 58 5 57 0;
#X connect 59 0 63 0;
#X connect 59 0 67 0;
#X connect 60 0 20 0;
#X connect 61 0 20 0;
#X connect 63 0 62 0;
#X connect 64 0 62 0;
#X connect 65 0 62 0;
#X connect 66 0 20 0;
#X connect 67 0 53 0;
#X connect 70 0 72 0;
#X connect 72 0 89 0;
#X connect 73 0 70 0;
#X connect 74 0 75 0;
#X connect 75 0 72 1;
#X connect 76 0 73 0;
#X connect 77 0 76 0;
#X connect 77 1 76 1;
#X connect 78 0 74 0;
#X connect 78 1 13 0;
#X connect 78 2 79 0;
#X connect 79 0 77 0;
#X connect 81 0 82 0;
#X connect 82 0 83 0;
#X connect 83 0 88 0;
#X connect 83 0 89 1;
#X connect 84 0 81 0;
#X connect 85 0 42 0;
#X connect 85 1 44 0;
#X connect 85 2 41 0;
#X connect 85 3 43 0;
#X connect 85 4 45 0;
#X connect 85 5 84 0;
#X connect 86 0 69 0;
#X connect 89 0 86 0;
#X connect 91 0 92 0;
#X connect 92 0 93 1;
#X connect 93 0 5 0;
