#N canvas 20 50 534 375 12;
#X obj 188 69 notein;
#X obj 169 310 dac~;
#X obj 127 98 mtof;
#X obj 243 102 + 12;
#X obj 221 158 mtof;
#X obj 100 172 osc~;
#X obj 232 194 osc~;
#X obj 238 231 *~ 0.8;
#X obj 97 208 *~ 0.8;
#X obj 316 27 vsl 15 128 0 1 0 0 enc1 enc1 enc1 0 -9 0 10 -262144 -1
-1 0 1;
#X obj 357 115 r enc2;
#X obj 253 130 +;
#X connect 0 0 2 0;
#X connect 0 0 3 0;
#X connect 2 0 5 0;
#X connect 3 0 11 0;
#X connect 4 0 6 0;
#X connect 5 0 8 0;
#X connect 6 0 7 0;
#X connect 7 0 1 0;
#X connect 7 0 1 1;
#X connect 8 0 1 0;
#X connect 8 0 1 1;
#X connect 9 0 11 1;
#X connect 11 0 4 0;
